<svg xmlns="http://www.w3.org/2000/svg" fill="none" viewBox="0 0 14 14" height="14" width="14"><g id="bug-antivirus-debugging--code-bug-security-programming-secure-computer-antivirus-block-protection-malware-debugging"><path id="Ellipse 978" fill="#ffffff0f" d="M0.5 7a6.5 6.5 0 1 0 13 0 6.5 6.5 0 1 0 -13 0" stroke-width="1"></path><path id="Vector 2344" fill="#ffffff" d="M9.5 8.25v-2.5a2.5 2.5 0 0 0 -5 0v2.5a2.5 2.5 0 0 0 5 0Z" stroke-width="1"></path><path id="Vector" stroke="#9b4819" stroke-linecap="round" stroke-linejoin="round" d="m3.5 10.5 1.3 -1.3" stroke-width="1"></path><path id="Vector_2" stroke="#9b4819" stroke-linecap="round" stroke-linejoin="round" d="M4.5 7H3" stroke-width="1"></path><path id="Vector_3" stroke="#9b4819" stroke-linecap="round" stroke-linejoin="round" d="M10.5 3.5 9.2 4.8" stroke-width="1"></path><path id="Vector_4" stroke="#9b4819" stroke-linecap="round" stroke-linejoin="round" d="M9.5 7H11" stroke-width="1"></path><path id="Vector_5" stroke="#9b4819" stroke-linecap="round" stroke-linejoin="round" d="M6.5 6.5h3" stroke-width="1"></path><path id="Ellipse 977" stroke="#9b4819" stroke-linecap="round" stroke-linejoin="round" d="M0.5 7a6.5 6.5 0 1 0 13 0 6.5 6.5 0 1 0 -13 0" stroke-width="1"></path><path id="Vector_6" stroke="#9b4819" stroke-linecap="round" stroke-linejoin="round" d="M11.596 11.596 2.404 2.404" stroke-width="1"></path><path id="Vector_7" stroke="#9b4819" stroke-linecap="round" stroke-linejoin="round" d="M4.5 7v1a2.5 2.5 0 0 0 3.172 2.408" stroke-width="1"></path><path id="Vector_8" stroke="#9b4819" stroke-linecap="round" stroke-linejoin="round" d="M4.804 4.804A2.5 2.5 0 0 1 9.5 6v2a2.5 2.5 0 0 1 -0.304 1.196" stroke-width="1"></path></g></svg>