<svg xmlns="http://www.w3.org/2000/svg" fill="none" viewBox="0 0 14 14" height="14" width="14"><g id="code-monitor-2--code-tags-angle-image-ui-ux-design"><path id="Vector" fill="#ffffff0f" d="M5 13.5 6 11h2l1 2.5H5Z" stroke-width="1"></path><path id="Subtract" fill="#ffffff" fill-rule="evenodd" d="M1 2h6.5v5l1.21 -1a2 2 0 0 1 2.55 0l2.24 2v2.5a0.5 0.5 0 0 1 -0.5 0.5H1a0.5 0.5 0 0 1 -0.5 -0.5v-8A0.5 0.5 0 0 1 1 2Z" clip-rule="evenodd" stroke-width="1"></path><path id="Vector_2" fill="#ffffff0f" d="M13.5 2.5A0.5 0.5 0 0 0 13 2H7.5v5l1.21 -1a2 2 0 0 1 2.55 0l2.24 2V2.5Z" stroke-width="1"></path><path id="Vector_3" stroke="#9b4819" stroke-linecap="round" stroke-linejoin="round" d="m6 11 -1 2.5" stroke-width="1"></path><path id="Vector_4" stroke="#9b4819" stroke-linecap="round" stroke-linejoin="round" d="m8 11 1 2.5" stroke-width="1"></path><path id="Vector_5" stroke="#9b4819" stroke-linecap="round" stroke-linejoin="round" d="M4 13.5h6" stroke-width="1"></path><path id="Vector_6" stroke="#9b4819" stroke-linecap="round" stroke-linejoin="round" d="M3 5h2" stroke-width="1"></path><path id="Vector_7" stroke="#9b4819" stroke-linecap="round" stroke-linejoin="round" d="M3 8h1" stroke-width="1"></path><path id="Vector_8" stroke="#9b4819" stroke-linecap="round" stroke-linejoin="round" d="M13 2H1a0.5 0.5 0 0 0 -0.5 0.5v8a0.5 0.5 0 0 0 0.5 0.5h12a0.5 0.5 0 0 0 0.5 -0.5v-8A0.5 0.5 0 0 0 13 2Z" stroke-width="1"></path><path id="Vector_9" stroke="#9b4819" stroke-linecap="round" stroke-linejoin="round" d="M7.5 2v9" stroke-width="1"></path><path id="Vector_10" stroke="#9b4819" stroke-linecap="round" stroke-linejoin="round" d="m7.5 7 1.21 -1a2 2 0 0 1 2.55 0l2.24 2" stroke-width="1"></path></g></svg>