<svg xmlns="http://www.w3.org/2000/svg" fill="none" viewBox="0 0 14 14" height="14" width="14"><g id="code-monitor-1--code-tags-angle-bracket-monitor"><path id="Vector" fill="#ffffff" d="M5 13.5 6 11h2l1 2.5H5Z" stroke-width="1"></path><path id="Vector_2" fill="#ffffff0f" d="M13 2H1a0.5 0.5 0 0 0 -0.5 0.5v8a0.5 0.5 0 0 0 0.5 0.5h12a0.5 0.5 0 0 0 0.5 -0.5v-8A0.5 0.5 0 0 0 13 2Z" stroke-width="1"></path><path id="Vector_3" stroke="#9b4819" stroke-linecap="round" stroke-linejoin="round" d="M13 2H1a0.5 0.5 0 0 0 -0.5 0.5v8a0.5 0.5 0 0 0 0.5 0.5h12a0.5 0.5 0 0 0 0.5 -0.5v-8A0.5 0.5 0 0 0 13 2Z" stroke-width="1"></path><path id="Vector_4" stroke="#9b4819" stroke-linecap="round" stroke-linejoin="round" d="m6 11 -1 2.5" stroke-width="1"></path><path id="Vector_5" stroke="#9b4819" stroke-linecap="round" stroke-linejoin="round" d="m8 11 1 2.5" stroke-width="1"></path><path id="Vector_6" stroke="#9b4819" stroke-linecap="round" stroke-linejoin="round" d="M4 13.5h6" stroke-width="1"></path><path id="Vector_7" stroke="#9b4819" stroke-linecap="round" stroke-linejoin="round" d="m4.5 5.25 -1.75 1.5L4.25 8" stroke-width="1"></path><path id="Vector_8" stroke="#9b4819" stroke-linecap="round" stroke-linejoin="round" d="m9.75 5.5 1.5 1.25 -1.75 1.5" stroke-width="1"></path><path id="Vector_9" stroke="#9b4819" stroke-linecap="round" stroke-linejoin="round" d="m6.25 8.75 1.5 -4.5" stroke-width="1"></path></g></svg>