<svg xmlns="http://www.w3.org/2000/svg" fill="none" viewBox="0 0 14 14" height="14" width="14"><g id="global-learning--global-learning-education"><path id="Vector" fill="#ffffff0f" d="M6.017 0.5a5.506 5.506 0 1 0 0 11.011A5.506 5.506 0 0 0 6.017 0.5Z" stroke-width="1"></path><path id="Rectangle 646" fill="#ffffff" d="m9.454 8.062 4.025 1.744 -4.025 1.744L5.43 9.806l4.025 -1.744Z" stroke-width="1"></path><path id="Ellipse 348" fill="#ffffff" d="M7.26 12.499s0.664 0.88 2.194 0.88c1.53 0 2.198 -0.88 2.198 -0.88l0 -1.898H7.255L7.26 12.5Z" stroke-width="1"></path><path id="Vector_2" stroke="#9b4819" stroke-linecap="round" stroke-linejoin="round" d="M11.366 7.318a5.506 5.506 0 1 0 -7.549 3.736" stroke-width="1"></path><path id="Vector_3" stroke="#9b4819" stroke-linecap="round" stroke-linejoin="round" d="M0.512 6.006h11.011" stroke-width="1"></path><path id="Vector_4" stroke="#9b4819" stroke-linecap="round" stroke-linejoin="round" d="M4.382 8.547a9.503 9.503 0 0 1 -0.484 -2.541A9.504 9.504 0 0 1 6.016 0.5a9.504 9.504 0 0 1 2.117 5.506A9.505 9.505 0 0 1 8.02 7.06" stroke-width="1"></path><path id="Rectangle 645" stroke="#9b4819" stroke-linecap="round" stroke-linejoin="round" d="m9.458 8.178 4.03 1.746 -4.03 1.746 -4.03 -1.746 4.03 -1.746Z" stroke-width="1"></path><path id="Ellipse 346" stroke="#9b4819" stroke-linecap="round" stroke-linejoin="round" d="m7.257 10.72 0.004 1.9s0.665 0.88 2.197 0.88 2.2 -0.88 2.2 -0.88l0 -1.9" stroke-width="1"></path><path id="Ellipse 347" stroke="#9b4819" stroke-linecap="round" stroke-linejoin="round" d="M5.429 12.995V9.924" stroke-width="1"></path></g></svg>