<svg xmlns="http://www.w3.org/2000/svg" fill="none" viewBox="0 0 14 14" height="14" width="14"><g id="module-three--code-three-module-programming-plugin"><path id="Vector" fill="#ffffff0f" d="M5.25 8.25H1a0.5 0.5 0 0 0 -0.5 0.5V13a0.5 0.5 0 0 0 0.5 0.5h4.25a0.5 0.5 0 0 0 0.5 -0.5V8.75a0.5 0.5 0 0 0 -0.5 -0.5Z" stroke-width="1"></path><path id="Vector_2" fill="#ffffff0f" d="M13 8.25H8.75a0.5 0.5 0 0 0 -0.5 0.5V13a0.5 0.5 0 0 0 0.5 0.5H13a0.5 0.5 0 0 0 0.5 -0.5V8.75a0.5 0.5 0 0 0 -0.5 -0.5Z" stroke-width="1"></path><path id="Vector_3" fill="#ffffff0f" d="M9.13 0.5H4.88a0.5 0.5 0 0 0 -0.5 0.5v4.25a0.5 0.5 0 0 0 0.5 0.5h4.25a0.5 0.5 0 0 0 0.5 -0.5V1a0.5 0.5 0 0 0 -0.5 -0.5Z" stroke-width="1"></path><path id="Vector_4" stroke="#9b4819" stroke-linecap="round" stroke-linejoin="round" d="M5.25 8.25H1a0.5 0.5 0 0 0 -0.5 0.5V13a0.5 0.5 0 0 0 0.5 0.5h4.25a0.5 0.5 0 0 0 0.5 -0.5V8.75a0.5 0.5 0 0 0 -0.5 -0.5Z" stroke-width="1"></path><path id="Vector_5" stroke="#9b4819" stroke-linecap="round" stroke-linejoin="round" d="M13 8.25H8.75a0.5 0.5 0 0 0 -0.5 0.5V13a0.5 0.5 0 0 0 0.5 0.5H13a0.5 0.5 0 0 0 0.5 -0.5V8.75a0.5 0.5 0 0 0 -0.5 -0.5Z" stroke-width="1"></path><path id="Vector_6" stroke="#9b4819" stroke-linecap="round" stroke-linejoin="round" d="M9.13 0.5H4.88a0.5 0.5 0 0 0 -0.5 0.5v4.25a0.5 0.5 0 0 0 0.5 0.5h4.25a0.5 0.5 0 0 0 0.5 -0.5V1a0.5 0.5 0 0 0 -0.5 -0.5Z" stroke-width="1"></path></g></svg>