<svg xmlns="http://www.w3.org/2000/svg" fill="none" viewBox="0 0 14 14" height="14" width="14"><g id="module-puzzle-1--code-puzzle-module-programming-plugin-piece"><path id="Vector" fill="#ffffff0f" d="M4.1 1.211c0.36 0.351 0.573 0.824 0.599 1.325L6.521 0.723a0.668 0.668 0 0 1 0.996 0l1.475 1.535c-0.21 0.101 -0.402 0.236 -0.568 0.398a2.052 2.052 0 0 0 2.899 2.9c0.162 -0.167 0.297 -0.36 0.399 -0.569l1.554 1.535a0.668 0.668 0 0 1 0 0.996l-1.813 1.784a2.043 2.043 0 1 1 -2.162 2.162l-1.824 1.813a0.668 0.668 0 0 1 -0.996 0l-1.475 -1.534c0.21 -0.102 0.402 -0.237 0.568 -0.4a2.057 2.057 0 1 0 -3.317 -2.33L0.723 7.478a0.668 0.668 0 0 1 0 -0.996l1.813 -1.784a1.993 1.993 0 0 1 -1.325 -0.597 2.043 2.043 0 1 1 2.89 -2.89Z" stroke-width="1"></path><path id="Vector_2" stroke="#9b4819" stroke-linecap="round" stroke-linejoin="round" d="M4.1 1.211c0.36 0.351 0.573 0.824 0.599 1.325L6.521 0.723a0.668 0.668 0 0 1 0.996 0l1.475 1.535c-0.21 0.101 -0.402 0.236 -0.568 0.398a2.052 2.052 0 0 0 2.899 2.9c0.162 -0.167 0.297 -0.36 0.399 -0.569l1.554 1.535a0.668 0.668 0 0 1 0 0.996l-1.813 1.784a2.043 2.043 0 1 1 -2.162 2.162l-1.824 1.813a0.668 0.668 0 0 1 -0.996 0l-1.475 -1.534c0.21 -0.102 0.402 -0.237 0.568 -0.4a2.057 2.057 0 1 0 -3.317 -2.33L0.723 7.478a0.668 0.668 0 0 1 0 -0.996l1.813 -1.784a1.993 1.993 0 0 1 -1.325 -0.597 2.043 2.043 0 1 1 2.89 -2.89v0Z" stroke-width="1"></path></g></svg>