<svg xmlns="http://www.w3.org/2000/svg" fill="none" viewBox="0 0 14 14" height="14" width="14"><g id="page-setting--page-setting-square-triangle-circle-line-combination-variation"><path id="Union" fill="#2273f3" fill-rule="evenodd" d="M7.565 5.626 10.21 0.334a0.604 0.604 0 0 1 1.08 0l2.646 5.292a0.604 0.604 0 0 1 -0.54 0.874H8.104a0.604 0.604 0 0 1 -0.54 -0.874ZM0.5 0.5A0.5 0.5 0 0 0 0 1v5a0.5 0.5 0 0 0 0.5 0.5h5A0.5 0.5 0 0 0 6 6V1a0.5 0.5 0 0 0 -0.5 -0.5h-5ZM6 11a3 3 0 1 1 -6 0 3 3 0 0 1 6 0Zm2.5 1.5a0.75 0.75 0 0 0 0 1.5H13a0.75 0.75 0 0 0 0 -1.5H8.5ZM7.75 11a0.75 0.75 0 0 1 0.75 -0.75H13a0.75 0.75 0 0 1 0 1.5H8.5a0.75 0.75 0 0 1 -0.75 -0.75Zm0.75 -3a0.75 0.75 0 0 0 0 1.5H13A0.75 0.75 0 0 0 13 8H8.5Z" clip-rule="evenodd" stroke-width="1"></path></g></svg>